<?xml version="1.0" encoding="UTF-8" standalone="no" ?>
<!DOCTYPE svg PUBLIC "-//W3C//DTD SVG 1.1//EN" "http://www.w3.org/Graphics/SVG/1.1/DTD/svg11.dtd">
<svg xmlns="http://www.w3.org/2000/svg" xmlns:xlink="http://www.w3.org/1999/xlink" version="1.1" width="1080" height="1080" viewBox="0 0 1080 1080" xml:space="preserve">
<desc>Created with Fabric.js 5.2.4</desc>
<defs>
</defs>
<g transform="matrix(1 0 0 1 540 540)" id="d9bef7b4-1199-4aa4-97d3-3ce3c64d94fe"  >
<rect style="stroke: none; stroke-width: 1; stroke-dasharray: none; stroke-linecap: butt; stroke-dashoffset: 0; stroke-linejoin: miter; stroke-miterlimit: 4; fill: rgb(255,255,255); fill-rule: nonzero; opacity: 1; visibility: hidden;" vector-effect="non-scaling-stroke"  x="-540" y="-540" rx="0" ry="0" width="1080" height="1080" />
</g>
<g transform="matrix(1 0 0 1 540 540)" id="8c66c428-2ad2-4755-99e4-31cff57ec509"  >
</g>
<g transform="matrix(13.85 0 0 13.85 540 540)"  >
<g style=""   >
		<g transform="matrix(1 0 0 1 18 0)" id="logo-38"  >
<path style="stroke: none; stroke-width: 1; stroke-dasharray: none; stroke-linecap: butt; stroke-dashoffset: 0; stroke-linejoin: miter; stroke-miterlimit: 4; fill: rgb(255,122,0); fill-rule: nonzero; opacity: 1;" vector-effect="non-scaling-stroke"  transform=" translate(-57, -16)" d="M 55.5 0 L 77.5 0 L 58.5 32 L 36.5 32 L 55.5 0 Z" stroke-linecap="round" />
</g>
		<g transform="matrix(1 0 0 1 -5 0)" id="logo-38"  >
<path style="stroke: none; stroke-width: 1; stroke-dasharray: none; stroke-linecap: butt; stroke-dashoffset: 0; stroke-linejoin: miter; stroke-miterlimit: 4; fill: rgb(255,151,54); fill-rule: nonzero; opacity: 1;" vector-effect="non-scaling-stroke"  transform=" translate(-34, -16)" d="M 35.5 0 L 51.5 0 L 32.5 32 L 16.5 32 L 35.5 0 Z" stroke-linecap="round" />
</g>
		<g transform="matrix(1 0 0 1 -23 0)" id="logo-38"  >
<path style="stroke: none; stroke-width: 1; stroke-dasharray: none; stroke-linecap: butt; stroke-dashoffset: 0; stroke-linejoin: miter; stroke-miterlimit: 4; fill: rgb(255,188,125); fill-rule: nonzero; opacity: 1;" vector-effect="non-scaling-stroke"  transform=" translate(-16, -16)" d="M 19.5 0 L 31.5 0 L 12.5 32 L 0.5 32 L 19.5 0 Z" stroke-linecap="round" />
</g>
</g>
</g>
</svg>